<svg width="2027" height="2077" viewBox="0 0 2027 2077" fill="none" xmlns="http://www.w3.org/2000/svg">
<rect y="25" width="2026.24" height="2026.25" rx="400" fill="black"/>
<g style="mix-blend-mode:plus-lighter" filter="url(#filter0_f_5_263)">
<path d="M705.62 1062L1269.62 250L997.37 877.75L1485.62 836.25L540.62 1826.25L1132.37 995.5L705.62 1062Z" fill="url(#paint0_linear_5_263)"/>
</g>
<g style="mix-blend-mode:plus-lighter" filter="url(#filter1_f_5_263)">
<path d="M705.62 1062L1269.62 250L997.37 877.75L1485.62 836.25L540.62 1826.25L1132.37 995.5L705.62 1062Z" fill="url(#paint1_linear_5_263)"/>
</g>
<g style="mix-blend-mode:plus-lighter">
<path d="M705.62 1062L1269.62 250L997.37 877.75L1485.62 836.25L540.62 1826.25L1132.37 995.5L705.62 1062Z" fill="url(#paint2_linear_5_263)"/>
</g>
<defs>
<filter id="filter0_f_5_263" x="290.62" y="0" width="1445" height="2076.25" filterUnits="userSpaceOnUse" color-interpolation-filters="sRGB">
<feFlood flood-opacity="0" result="BackgroundImageFix"/>
<feBlend mode="normal" in="SourceGraphic" in2="BackgroundImageFix" result="shape"/>
<feGaussianBlur stdDeviation="125" result="effect1_foregroundBlur_5_263"/>
</filter>
<filter id="filter1_f_5_263" x="290.62" y="0" width="1445" height="2076.25" filterUnits="userSpaceOnUse" color-interpolation-filters="sRGB">
<feFlood flood-opacity="0" result="BackgroundImageFix"/>
<feBlend mode="normal" in="SourceGraphic" in2="BackgroundImageFix" result="shape"/>
<feGaussianBlur stdDeviation="125" result="effect1_foregroundBlur_5_263"/>
</filter>
<linearGradient id="paint0_linear_5_263" x1="1013.12" y1="250" x2="1013.12" y2="1826.25" gradientUnits="userSpaceOnUse">
<stop stop-color="white"/>
<stop offset="1" stop-color="white" stop-opacity="0"/>
</linearGradient>
<linearGradient id="paint1_linear_5_263" x1="1013.12" y1="250" x2="1013.12" y2="1826.25" gradientUnits="userSpaceOnUse">
<stop stop-color="white"/>
<stop offset="1" stop-color="white" stop-opacity="0"/>
</linearGradient>
<linearGradient id="paint2_linear_5_263" x1="1013.12" y1="250" x2="1013.12" y2="1826.25" gradientUnits="userSpaceOnUse">
<stop stop-color="white"/>
<stop offset="1" stop-color="white" stop-opacity="0"/>
</linearGradient>
</defs>
</svg>
